<?xml version="1.0" encoding="UTF-8" standalone="no"?>
<!-- Created with Inkscape (http://www.inkscape.org/) -->

<svg
   xmlns:dc="http://purl.org/dc/elements/1.1/"
   xmlns:cc="http://creativecommons.org/ns#"
   xmlns:rdf="http://www.w3.org/1999/02/22-rdf-syntax-ns#"
   xmlns:svg="http://www.w3.org/2000/svg"
   xmlns="http://www.w3.org/2000/svg"
   xmlns:sodipodi="http://sodipodi.sourceforge.net/DTD/sodipodi-0.dtd"
   xmlns:inkscape="http://www.inkscape.org/namespaces/inkscape"
   width="210mm"
   height="297mm"
   viewBox="0 0 210 297"
   version="1.1"
   id="svg8"
   inkscape:version="0.92.4 5da689c313, 2019-01-14"
   sodipodi:docname="drawings.svg">
  <defs
     id="defs2" />
  <sodipodi:namedview
     id="base"
     pagecolor="#ffffff"
     bordercolor="#666666"
     borderopacity="1.0"
     inkscape:pageopacity="0.0"
     inkscape:pageshadow="2"
     inkscape:zoom="0.74331073"
     inkscape:cx="377.5348"
     inkscape:cy="172.18541"
     inkscape:document-units="mm"
     inkscape:current-layer="layer1"
     showgrid="false"
     inkscape:object-paths="true"
     inkscape:snap-smooth-nodes="true"
     inkscape:snap-midpoints="true"
     inkscape:snap-text-baseline="true" />
  <metadata
     id="metadata5">
    <rdf:RDF>
      <cc:Work
         rdf:about="">
        <dc:format>image/svg+xml</dc:format>
        <dc:type
           rdf:resource="http://purl.org/dc/dcmitype/StillImage" />
        <dc:title />
      </cc:Work>
    </rdf:RDF>
  </metadata>
  <g
     inkscape:label="Layer 1"
     inkscape:groupmode="layer"
     id="layer1">
    <path
       inkscape:connector-curvature="0"
       id="path821"
       d="m 69.849714,22.748797 h -40"
       style="fill:none;fill-rule:evenodd;stroke:#000000;stroke-width:0.28716916px;stroke-linecap:butt;stroke-linejoin:miter;stroke-opacity:1" />
    <path
       style="fill:none;fill-rule:evenodd;stroke:#000000;stroke-width:0.39322251px;stroke-linecap:butt;stroke-linejoin:miter;stroke-opacity:1"
       d="M 103.5509,29.240278 H 28.550894"
       id="path825"
       inkscape:connector-curvature="0" />
    <path
       inkscape:connector-curvature="0"
       id="path817"
       d="M 102.74138,33.12407 H 52.74137"
       style="fill:none;fill-rule:evenodd;stroke:#000000;stroke-width:0.32106486px;stroke-linecap:butt;stroke-linejoin:miter;stroke-opacity:1" />
    <g
       id="g950"
       transform="translate(11.141952,21.813117)"
       inkscape:export-xdpi="200"
       inkscape:export-ydpi="200">
      <path
         inkscape:connector-curvature="0"
         id="path839"
         d="m 65.160046,64.091213 h -37.5"
         style="fill:none;fill-rule:evenodd;stroke:#333333;stroke-width:1;stroke-linecap:round;stroke-linejoin:round;stroke-miterlimit:4;stroke-dasharray:none;stroke-opacity:1" />
      <path
         style="fill:none;fill-rule:evenodd;stroke:#333333;stroke-width:1;stroke-linecap:round;stroke-linejoin:round;stroke-miterlimit:4;stroke-dasharray:none;stroke-opacity:1"
         d="m 97.660046,68.378254 h -70"
         id="path841"
         inkscape:connector-curvature="0" />
      <path
         inkscape:connector-curvature="0"
         id="path843"
         d="m 97.660049,72.665295 h -47.5"
         style="fill:none;fill-rule:evenodd;stroke:#333333;stroke-width:1;stroke-linecap:round;stroke-linejoin:round;stroke-miterlimit:4;stroke-dasharray:none;stroke-opacity:1" />
      <path
         style="opacity:1;fill:none;fill-opacity:1;fill-rule:evenodd;stroke:#333333;stroke-width:1;stroke-linecap:round;stroke-linejoin:round;stroke-miterlimit:4;stroke-dasharray:none;stroke-dashoffset:0;stroke-opacity:1;paint-order:normal"
         d="m 97.660046,68.378254 c 1.18383,0 2.14352,0.959691 2.14352,2.143521 0,1.18383 -0.95969,2.14352 -2.14352,2.14352"
         id="path846"
         inkscape:connector-curvature="0"
         sodipodi:nodetypes="csc" />
      <path
         sodipodi:nodetypes="csc"
         inkscape:connector-curvature="0"
         id="path827"
         d="m 27.660046,68.378254 c -1.183834,0 -2.143521,-0.959686 -2.143521,-2.14352 0,-1.183834 0.959687,-2.143521 2.143521,-2.143521"
         style="opacity:1;fill:none;fill-opacity:1;fill-rule:evenodd;stroke:#333333;stroke-width:1;stroke-linecap:round;stroke-linejoin:round;stroke-miterlimit:4;stroke-dasharray:none;stroke-dashoffset:0;stroke-opacity:1;paint-order:normal" />
      <path
         inkscape:connector-curvature="0"
         id="path882"
         d="M 99.803565,81.243779 V 76.954537"
         style="fill:none;fill-rule:evenodd;stroke:#333333;stroke-width:0.40000001;stroke-linecap:round;stroke-linejoin:round;stroke-miterlimit:4;stroke-dasharray:none;stroke-opacity:1" />
      <path
         inkscape:connector-curvature="0"
         id="path884"
         d="M 25.516525,59.80197 V 55.512728"
         style="fill:none;fill-rule:evenodd;stroke:#333333;stroke-width:0.40000001;stroke-linecap:round;stroke-linejoin:round;stroke-miterlimit:4;stroke-dasharray:none;stroke-opacity:1" />
      <path
         style="fill:none;fill-rule:evenodd;stroke:#333333;stroke-width:0.40000001;stroke-linecap:round;stroke-linejoin:round;stroke-miterlimit:4;stroke-dasharray:none;stroke-opacity:1"
         d="M 65.160045,59.801971 V 55.512729"
         id="path854"
         inkscape:connector-curvature="0" />
      <path
         style="fill:none;fill-rule:evenodd;stroke:#333333;stroke-width:0.40000001;stroke-linecap:round;stroke-linejoin:round;stroke-miterlimit:4;stroke-dasharray:none;stroke-opacity:1"
         d="M 50.160049,81.243779 V 76.954537"
         id="path858-3"
         inkscape:connector-curvature="0" />
      <path
         style="fill:none;fill-rule:evenodd;stroke:#333333;stroke-width:0.40000001;stroke-linecap:round;stroke-linejoin:round;stroke-miterlimit:4;stroke-dasharray:none;stroke-opacity:1"
         d="M 65.160045,57.657349 H 25.516525"
         id="path856"
         inkscape:connector-curvature="0" />
      <path
         sodipodi:nodetypes="cc"
         style="fill:none;fill-rule:evenodd;stroke:#333333;stroke-width:0.40000001;stroke-linecap:round;stroke-linejoin:round;stroke-miterlimit:4;stroke-dasharray:none;stroke-opacity:1"
         d="M 99.803565,79.099158 H 50.160049"
         id="path860-6"
         inkscape:connector-curvature="0" />
      <text
         xml:space="preserve"
         style="font-style:normal;font-variant:normal;font-weight:normal;font-stretch:normal;font-size:3.93603444px;line-height:125%;font-family:Montserrat;-inkscape-font-specification:Montserrat;text-align:center;letter-spacing:0px;word-spacing:0px;text-anchor:middle;fill:#000000;fill-opacity:1;stroke:none;stroke-width:0.36900321px;stroke-linecap:butt;stroke-linejoin:miter;stroke-opacity:1"
         x="45.444557"
         y="54.232697"
         id="text892"><tspan
           sodipodi:role="line"
           id="tspan890"
           x="45.444557"
           y="54.232697"
           style="text-align:center;text-anchor:middle;stroke-width:0.36900321px">40mm</tspan></text>
      <text
         id="text888"
         y="85.069229"
         x="75.123505"
         style="font-style:normal;font-variant:normal;font-weight:normal;font-stretch:normal;font-size:3.93603444px;line-height:125%;font-family:Montserrat;-inkscape-font-specification:Montserrat;text-align:center;letter-spacing:0px;word-spacing:0px;text-anchor:middle;fill:#000000;fill-opacity:1;stroke:none;stroke-width:0.36900321px;stroke-linecap:butt;stroke-linejoin:miter;stroke-opacity:1"
         xml:space="preserve"><tspan
           style="text-align:center;text-anchor:middle;stroke-width:0.36900321px"
           y="85.069229"
           x="75.123505"
           id="tspan886"
           sodipodi:role="line">50mm</tspan></text>
      <rect
         y="60.878254"
         x="55.160046"
         height="15"
         width="5"
         id="rect894"
         style="opacity:1;fill:none;fill-opacity:1;fill-rule:evenodd;stroke:#e4494b;stroke-width:0.60000002;stroke-linecap:round;stroke-linejoin:round;stroke-miterlimit:4;stroke-dasharray:none;stroke-dashoffset:0;stroke-opacity:1;paint-order:normal" />
    </g>
    <path
       sodipodi:type="star"
       style="opacity:1;fill:none;fill-opacity:1;fill-rule:evenodd;stroke:#333333;stroke-width:0.79374999;stroke-linecap:round;stroke-linejoin:round;stroke-miterlimit:4;stroke-dasharray:none;stroke-dashoffset:0;stroke-opacity:1;paint-order:stroke fill markers"
       id="path929"
       sodipodi:sides="8"
       sodipodi:cx="-32.412283"
       sodipodi:cy="63.999062"
       sodipodi:r1="15.132926"
       sodipodi:r2="13.981"
       sodipodi:arg1="0"
       sodipodi:arg2="0.39269908"
       inkscape:flatsided="true"
       inkscape:rounded="0"
       inkscape:randomized="0"
       d="m -17.279359,63.999062 -4.432331,10.700594 -10.700595,4.432332 -10.700594,-4.432332 -4.432332,-10.700594 4.432332,-10.700595 10.700594,-4.432331 10.700595,4.432331 z"
       inkscape:transform-center-x="2.5931972e-06" />
    <path
       style="fill:none;fill-rule:evenodd;stroke:#333333;stroke-width:0.79374999;stroke-linecap:butt;stroke-linejoin:miter;stroke-miterlimit:4;stroke-dasharray:none;stroke-opacity:1"
       d="m -43.112878,53.298465 21.40118,21.401187"
       id="path933"
       inkscape:connector-curvature="0" />
    <path
       style="fill:none;fill-rule:evenodd;stroke:#333333;stroke-width:0.79374999;stroke-linecap:butt;stroke-linejoin:miter;stroke-miterlimit:4;stroke-dasharray:none;stroke-opacity:1"
       d="M -32.412288,48.866133 V 79.131981"
       id="path935"
       inkscape:connector-curvature="0" />
    <path
       style="fill:none;fill-rule:evenodd;stroke:#333333;stroke-width:0.79374999;stroke-linecap:butt;stroke-linejoin:miter;stroke-miterlimit:4;stroke-dasharray:none;stroke-opacity:1"
       d="m -21.711698,53.298465 -21.40118,21.401187"
       id="path937"
       inkscape:connector-curvature="0" />
    <path
       style="fill:none;fill-rule:evenodd;stroke:#333333;stroke-width:0.79374999;stroke-linecap:butt;stroke-linejoin:miter;stroke-miterlimit:4;stroke-dasharray:none;stroke-opacity:1"
       d="m -47.545218,63.999062 h 30.26586"
       id="path939"
       inkscape:connector-curvature="0" />
    <path
       style="opacity:1;fill:#bedab9;fill-opacity:1;fill-rule:evenodd;stroke:#333333;stroke-width:0.22908816;stroke-linecap:round;stroke-linejoin:round;stroke-miterlimit:4;stroke-dasharray:none;stroke-dashoffset:0;stroke-opacity:1;paint-order:stroke fill markers"
       d="m -43.039598,54.011424 c -0.45863,0.73229 -0.71084,1.601274 -1.08178,2.388063 -0.98763,2.354858 -1.95479,4.718274 -2.9392,7.074505 0.0867,0.50196 0.85824,0.15301 1.24,0.25652 4.10857,0 8.21715,0 12.32572,0 0.48007,-0.31149 -0.39224,-0.71282 -0.57097,-1.018171 -2.92606,-2.898292 -5.79252,-5.860305 -8.78108,-8.693461 -0.056,-0.04887 -0.12952,7.94e-4 -0.19269,-0.0075 z"
       id="path943"
       inkscape:connector-curvature="0" />
    <path
       style="opacity:1;fill:#e4494b;fill-opacity:1;fill-rule:evenodd;stroke:#333333;stroke-width:0.22908816;stroke-linecap:round;stroke-linejoin:round;stroke-miterlimit:4;stroke-dasharray:none;stroke-dashoffset:0;stroke-opacity:1;paint-order:stroke fill markers"
       d="m -32.998348,49.404602 c -3.14318,1.256604 -6.2693,2.562823 -9.39202,3.871532 -0.28497,0.334936 0.30661,0.580789 0.46348,0.841851 2.94992,2.987085 5.90057,5.976233 8.91944,8.892906 0.46942,0.0887 0.25432,-0.555659 0.31461,-0.827589 0.0331,-4.093061 0.0693,-8.188002 -0.009,-12.280402 -0.0132,-0.191622 -0.0199,-0.525915 -0.2968,-0.498298 z"
       id="path945"
       inkscape:connector-curvature="0" />
    <path
       style="opacity:1;fill:#d27b50;fill-opacity:1;fill-rule:evenodd;stroke:#333333;stroke-width:0.22908816;stroke-linecap:round;stroke-linejoin:round;stroke-miterlimit:4;stroke-dasharray:none;stroke-dashoffset:0;stroke-opacity:1;paint-order:stroke fill markers"
       d="m -32.023088,49.350016 c -0.26856,0.314542 -0.0601,0.829593 -0.1409,1.215173 -0.0249,4.110035 -0.0666,8.223321 0.0341,12.331602 0.2651,0.372721 0.56833,-0.2054 0.79569,-0.36288 3.00325,-2.973546 6.01356,-5.942982 8.94548,-8.986331 0.0852,-0.41883 -0.55769,-0.403719 -0.81252,-0.591949 -2.88714,-1.211652 -5.78667,-2.393572 -8.67331,-3.606361 l -0.0764,2.64e-4 z"
       id="path947"
       inkscape:connector-curvature="0" />
    <path
       style="opacity:1;fill:#d8ad8d;fill-opacity:1;fill-rule:evenodd;stroke:#333333;stroke-width:0.22908816;stroke-linecap:round;stroke-linejoin:round;stroke-miterlimit:4;stroke-dasharray:none;stroke-dashoffset:0;stroke-opacity:1;paint-order:stroke fill markers"
       d="m -21.900548,54.012318 c -0.87118,0.631497 -1.58382,1.477259 -2.37694,2.207509 -2.38566,2.374178 -4.78578,4.73638 -7.1171,7.163324 -0.0887,0.469381 0.55553,0.254361 0.82745,0.314611 4.10867,0.0333 8.21926,0.0711 12.327221,-0.0162 0.26085,0.0481 0.60307,-0.15328 0.37927,-0.44243 -1.255311,-3.052275 -2.5189,-6.101936 -3.829011,-9.130952 -0.0726,-0.05183 -0.1065,-0.12863 -0.21089,-0.0959 z"
       id="path949"
       inkscape:connector-curvature="0" />
    <path
       style="opacity:1;fill:#62483b;fill-opacity:1;fill-rule:evenodd;stroke:#333333;stroke-width:0.22908816;stroke-linecap:round;stroke-linejoin:round;stroke-miterlimit:4;stroke-dasharray:none;stroke-dashoffset:0;stroke-opacity:1;paint-order:stroke fill markers"
       d="m -25.932858,64.277582 c -1.78253,0.016 -3.56784,-0.0134 -5.34852,0.0592 -0.37208,0.274799 0.22359,0.57482 0.38001,0.808689 2.94023,2.965031 5.85812,5.956501 8.89164,8.825991 0.41306,0.13069 0.41883,-0.51061 0.598751,-0.75119 1.23037,-2.89055 2.474169,-5.77726 3.635949,-8.69571 -0.096,-0.42461 -0.683451,-0.16313 -1.00852,-0.238101 -2.383079,-0.01 -4.76621,-0.0108 -7.14931,-0.009 z"
       id="path951"
       inkscape:connector-curvature="0" />
    <path
       style="opacity:1;fill:#649861;fill-opacity:1;fill-rule:evenodd;stroke:#333333;stroke-width:0.22908816;stroke-linecap:round;stroke-linejoin:round;stroke-miterlimit:4;stroke-dasharray:none;stroke-dashoffset:0;stroke-opacity:1;paint-order:stroke fill markers"
       d="m -32.101838,65.046132 c -0.12671,1.13079 -0.0434,2.2949 -0.0807,3.43751 0.01,3.27403 -0.0593,6.55098 0.0461,9.823209 -0.0303,0.313122 0.31292,0.423381 0.52944,0.229251 3.04439,-1.278789 6.10555,-2.51755 9.14685,-3.80354 0.2964,-0.324 -0.28946,-0.56767 -0.44246,-0.82126 -2.96058,-2.99234 -5.91295,-5.99658 -8.94344,-8.91722 -0.10465,-0.0341 -0.17736,-0.0306 -0.25579,0.052 z"
       id="path953"
       inkscape:connector-curvature="0" />
    <path
       style="opacity:1;fill:#5c6c7c;fill-opacity:1;fill-rule:evenodd;stroke:#333333;stroke-width:0.22908816;stroke-linecap:round;stroke-linejoin:round;stroke-miterlimit:4;stroke-dasharray:none;stroke-dashoffset:0;stroke-opacity:1;paint-order:stroke fill markers"
       d="m -33.007448,64.996022 c -2.97566,2.88337 -5.90147,5.82114 -8.80304,8.77977 -0.17722,0.27438 -0.72889,0.5722 -0.50993,0.94857 2.48623,1.103471 5.02724,2.111171 7.54031,3.16349 0.62872,0.228891 1.23394,0.56324 1.88064,0.72072 0.33883,-0.229799 0.13923,-0.76008 0.21267,-1.112859 0.0314,-4.126151 0.0619,-8.255351 -0.0326,-12.380071 -0.026,-0.12654 -0.1806,-0.17627 -0.288,-0.11962 z"
       id="path955"
       inkscape:connector-curvature="0" />
    <path
       style="opacity:1;fill:#585868;fill-opacity:1;fill-rule:evenodd;stroke:#333333;stroke-width:0.22908816;stroke-linecap:round;stroke-linejoin:round;stroke-miterlimit:4;stroke-dasharray:none;stroke-dashoffset:0;stroke-opacity:1;paint-order:stroke fill markers"
       d="m -41.546358,64.277582 c -1.78945,0.017 -3.58222,-0.0154 -5.36955,0.0607 -0.32354,0.24345 0.13235,0.66096 0.17581,0.96455 1.21124,2.85486 2.34317,5.74621 3.59236,8.58317 0.24694,0.38342 0.58853,-0.15475 0.78651,-0.32374 3.01774,-2.97114 5.9997,-5.97832 8.99732,-8.96969 0.1193,-0.55973 -0.78138,-0.22668 -1.12367,-0.31619 -2.35292,5.29e-4 -4.70585,-0.001 -7.05878,0.001 z"
       id="path957"
       inkscape:connector-curvature="0" />
    <g
       id="g929"
       transform="translate(1.8428348,-7.5556226)">
      <rect
         y="128.09019"
         x="64.588112"
         height="4.3406329"
         width="4.7587509"
         id="rect917"
         style="opacity:1;fill:#e4494b;fill-opacity:1;fill-rule:evenodd;stroke:#e4494b;stroke-width:0.81105512;stroke-linecap:round;stroke-linejoin:round;stroke-miterlimit:4;stroke-dasharray:none;stroke-dashoffset:0;stroke-opacity:1;paint-order:normal" />
      <path
         style="opacity:1;fill:none;fill-opacity:1;fill-rule:evenodd;stroke:#333333;stroke-width:1;stroke-linecap:round;stroke-linejoin:round;stroke-miterlimit:4;stroke-dasharray:none;stroke-dashoffset:0;stroke-opacity:1;paint-order:normal"
         d="m 40.818145,134.11116 c -3.310493,0 -5.994176,-2.68368 -5.994172,-5.99418 2e-6,-3.31048 2.683683,-5.99417 5.994172,-5.99417"
         id="path919"
         inkscape:connector-curvature="0"
         sodipodi:nodetypes="csc" />
      <path
         style="opacity:1;fill:none;fill-opacity:1;fill-rule:evenodd;stroke:#333333;stroke-width:1;stroke-linecap:round;stroke-linejoin:round;stroke-miterlimit:4;stroke-dasharray:none;stroke-dashoffset:0;stroke-opacity:1;paint-order:normal"
         d="m 103.11684,126.40986 c 3.31049,0 5.99417,2.68368 5.99417,5.99417 0,3.31049 -2.68368,5.99418 -5.99417,5.99418"
         id="path921"
         inkscape:connector-curvature="0"
         sodipodi:nodetypes="csc" />
      <path
         sodipodi:nodetypes="csc"
         inkscape:connector-curvature="0"
         id="path923"
         d="m 40.818145,122.12281 c 9.927318,0 11.006947,6.71744 25.88941,6.71744 2.759936,0 3.750629,-0.17435 6.601306,-0.93818"
         style="fill:none;fill-rule:evenodd;stroke:#333333;stroke-width:1;stroke-linecap:butt;stroke-linejoin:miter;stroke-miterlimit:4;stroke-dasharray:none;stroke-opacity:1" />
      <path
         sodipodi:nodetypes="csc"
         inkscape:connector-curvature="0"
         id="path925"
         d="m 60.720756,133.23081 c 1.84188,-1.06341 3.746735,-1.49356 5.986794,-1.49356 14.882468,0 23.884038,6.66096 36.40929,6.66096"
         style="fill:none;fill-rule:evenodd;stroke:#333333;stroke-width:1;stroke-linecap:butt;stroke-linejoin:miter;stroke-miterlimit:4;stroke-dasharray:none;stroke-opacity:1" />
      <path
         style="fill:none;fill-rule:evenodd;stroke:#333333;stroke-width:1;stroke-linecap:butt;stroke-linejoin:miter;stroke-miterlimit:4;stroke-dasharray:none;stroke-opacity:1"
         d="m 40.818144,134.11116 c 9.927318,0 11.006947,-3.85066 25.88941,-3.85066 14.882464,0 23.884034,-3.85064 36.409286,-3.85064"
         id="path927"
         inkscape:connector-curvature="0"
         sodipodi:nodetypes="czc" />
    </g>
    <g
       id="g941"
       inkscape:export-xdpi="200"
       inkscape:export-ydpi="200">
      <rect
         y="137.82019"
         x="22.934225"
         height="13.829591"
         width="104.89802"
         id="rect931"
         style="opacity:1;fill:#ffffff;fill-opacity:1;fill-rule:evenodd;stroke:none;stroke-width:0.89329135;stroke-linecap:round;stroke-linejoin:round;stroke-miterlimit:4;stroke-dasharray:none;stroke-dashoffset:0;stroke-opacity:1;paint-order:normal" />
      <g
         transform="rotate(-3.9434965,283.0328,105.37164)"
         id="g915">
        <rect
           y="128.09019"
           x="64.588112"
           height="4.3406329"
           width="4.7587509"
           id="rect877"
           style="opacity:1;fill:#e4494b;fill-opacity:1;fill-rule:evenodd;stroke:#e4494b;stroke-width:0.81105512;stroke-linecap:round;stroke-linejoin:round;stroke-miterlimit:4;stroke-dasharray:none;stroke-dashoffset:0;stroke-opacity:1;paint-order:normal" />
        <path
           style="opacity:1;fill:none;fill-opacity:1;fill-rule:evenodd;stroke:#333333;stroke-width:1;stroke-linecap:round;stroke-linejoin:round;stroke-miterlimit:4;stroke-dasharray:none;stroke-dashoffset:0;stroke-opacity:1;paint-order:normal"
           d="m 40.818145,134.11116 c -3.310493,0 -5.994176,-2.68368 -5.994172,-5.99418 2e-6,-3.31048 2.683683,-5.99417 5.994172,-5.99417"
           id="circle897"
           inkscape:connector-curvature="0"
           sodipodi:nodetypes="csc" />
        <path
           style="opacity:1;fill:none;fill-opacity:1;fill-rule:evenodd;stroke:#333333;stroke-width:1;stroke-linecap:round;stroke-linejoin:round;stroke-miterlimit:4;stroke-dasharray:none;stroke-dashoffset:0;stroke-opacity:1;paint-order:normal"
           d="m 103.11684,126.40986 c 3.31049,0 5.99417,2.68368 5.99417,5.99417 0,3.31049 -2.68368,5.99418 -5.99417,5.99418"
           id="path845"
           inkscape:connector-curvature="0"
           sodipodi:nodetypes="csc" />
        <path
           sodipodi:nodetypes="csc"
           inkscape:connector-curvature="0"
           id="path903"
           d="m 40.818145,122.12281 c 9.927318,0 11.006947,6.71744 25.88941,6.71744 2.759936,0 3.750629,-0.17435 6.601306,-0.93818"
           style="fill:none;fill-rule:evenodd;stroke:#333333;stroke-width:1;stroke-linecap:butt;stroke-linejoin:miter;stroke-miterlimit:4;stroke-dasharray:none;stroke-opacity:1" />
        <path
           sodipodi:nodetypes="csc"
           inkscape:connector-curvature="0"
           id="path905"
           d="m 60.720756,133.23081 c 1.84188,-1.06341 3.746735,-1.49356 5.986794,-1.49356 14.882468,0 23.884038,6.66096 36.40929,6.66096"
           style="fill:none;fill-rule:evenodd;stroke:#333333;stroke-width:1;stroke-linecap:butt;stroke-linejoin:miter;stroke-miterlimit:4;stroke-dasharray:none;stroke-opacity:1" />
        <path
           style="fill:none;fill-rule:evenodd;stroke:#333333;stroke-width:1;stroke-linecap:butt;stroke-linejoin:miter;stroke-miterlimit:4;stroke-dasharray:none;stroke-opacity:1"
           d="m 40.818144,134.11116 c 9.927318,0 11.006947,-3.85066 25.88941,-3.85066 14.882464,0 23.884034,-3.85064 36.409286,-3.85064"
           id="path899"
           inkscape:connector-curvature="0"
           sodipodi:nodetypes="czc" />
      </g>
    </g>
    <g
       id="g992"
       inkscape:export-xdpi="200"
       inkscape:export-ydpi="200">
      <rect
         style="opacity:1;fill:#ffffff;fill-opacity:1;fill-rule:evenodd;stroke:none;stroke-width:1.87626767;stroke-linecap:round;stroke-linejoin:round;stroke-miterlimit:4;stroke-dasharray:none;stroke-dashoffset:0;stroke-opacity:1;paint-order:normal"
         id="rect864"
         width="80"
         height="80"
         x="40.766872"
         y="209.41762" />
      <g
         transform="translate(4.9351827,38.326385)"
         id="g975">
        <text
           id="text952"
           y="225.84531"
           x="93.387238"
           style="font-style:normal;font-variant:normal;font-weight:normal;font-stretch:normal;font-size:2.93616772px;line-height:125%;font-family:Montserrat;-inkscape-font-specification:Montserrat;text-align:center;letter-spacing:0px;word-spacing:0px;text-anchor:middle;fill:#000000;fill-opacity:1;stroke:none;stroke-width:0.27526572px;stroke-linecap:butt;stroke-linejoin:miter;stroke-opacity:1"
           xml:space="preserve"><tspan
             style="text-align:center;text-anchor:middle;stroke-width:0.27526572px"
             y="225.84531"
             x="93.387238"
             id="tspan950"
             sodipodi:role="line">40mm</tspan></text>
        <text
           xml:space="preserve"
           style="font-style:normal;font-variant:normal;font-weight:normal;font-stretch:normal;font-size:2.93616772px;line-height:125%;font-family:Montserrat;-inkscape-font-specification:Montserrat;text-align:center;letter-spacing:0px;word-spacing:0px;text-anchor:middle;fill:#000000;fill-opacity:1;stroke:none;stroke-width:0.27526572px;stroke-linecap:butt;stroke-linejoin:miter;stroke-opacity:1"
           x="53.469948"
           y="198.39247"
           id="text924"><tspan
             sodipodi:role="line"
             id="tspan922"
             x="53.469948"
             y="198.39247"
             style="text-align:center;text-anchor:middle;stroke-width:0.27526572px">30mm</tspan></text>
        <g
           transform="rotate(-3.9434965,1247.0207,114.52616)"
           id="g878">
          <rect
             y="128.09019"
             x="64.588112"
             height="4.3406329"
             width="4.7587509"
             id="rect866"
             style="opacity:1;fill:#e4494b;fill-opacity:1;fill-rule:evenodd;stroke:#e4494b;stroke-width:0.81105512;stroke-linecap:round;stroke-linejoin:round;stroke-miterlimit:4;stroke-dasharray:none;stroke-dashoffset:0;stroke-opacity:1;paint-order:normal" />
          <path
             style="opacity:1;fill:none;fill-opacity:1;fill-rule:evenodd;stroke:#333333;stroke-width:1;stroke-linecap:round;stroke-linejoin:round;stroke-miterlimit:4;stroke-dasharray:none;stroke-dashoffset:0;stroke-opacity:1;paint-order:normal"
             d="m 40.818145,134.11116 c -3.310493,0 -5.994176,-2.68368 -5.994172,-5.99418 2e-6,-3.31048 2.683683,-5.99417 5.994172,-5.99417"
             id="path868"
             inkscape:connector-curvature="0"
             sodipodi:nodetypes="csc" />
          <path
             style="opacity:1;fill:none;fill-opacity:1;fill-rule:evenodd;stroke:#333333;stroke-width:1;stroke-linecap:round;stroke-linejoin:round;stroke-miterlimit:4;stroke-dasharray:none;stroke-dashoffset:0;stroke-opacity:1;paint-order:normal"
             d="m 103.11684,126.40986 c 3.31049,0 5.99417,2.68368 5.99417,5.99417 0,3.31049 -2.68368,5.99418 -5.99417,5.99418"
             id="path870"
             inkscape:connector-curvature="0"
             sodipodi:nodetypes="csc" />
          <path
             sodipodi:nodetypes="csc"
             inkscape:connector-curvature="0"
             id="path872"
             d="m 40.818145,122.12281 c 9.927318,0 11.006947,6.71744 25.88941,6.71744 2.759936,0 3.750629,-0.17435 6.601306,-0.93818"
             style="fill:none;fill-rule:evenodd;stroke:#333333;stroke-width:1;stroke-linecap:butt;stroke-linejoin:miter;stroke-miterlimit:4;stroke-dasharray:none;stroke-opacity:1" />
          <path
             sodipodi:nodetypes="csc"
             inkscape:connector-curvature="0"
             id="path874"
             d="m 60.720756,133.23081 c 1.84188,-1.06341 3.746735,-1.49356 5.986794,-1.49356 14.882468,0 23.884038,6.66096 36.40929,6.66096"
             style="fill:none;fill-rule:evenodd;stroke:#333333;stroke-width:1;stroke-linecap:butt;stroke-linejoin:miter;stroke-miterlimit:4;stroke-dasharray:none;stroke-opacity:1" />
          <path
             style="fill:none;fill-rule:evenodd;stroke:#333333;stroke-width:1;stroke-linecap:butt;stroke-linejoin:miter;stroke-miterlimit:4;stroke-dasharray:none;stroke-opacity:1"
             d="m 40.818144,134.11116 c 9.927318,0 11.006947,-3.85066 25.88941,-3.85066 14.882464,0 23.884034,-3.85064 36.409286,-3.85064"
             id="path876"
             inkscape:connector-curvature="0"
             sodipodi:nodetypes="czc" />
        </g>
        <path
           inkscape:connector-curvature="0"
           id="path889"
           d="M 113.07413,218.61083 V 221.934 H 73.541799 v -3.4799"
           style="fill:none;fill-rule:evenodd;stroke:#333333;stroke-width:0.40000001;stroke-linecap:round;stroke-linejoin:round;stroke-miterlimit:4;stroke-dasharray:none;stroke-opacity:1"
           sodipodi:nodetypes="cccc" />
        <path
           style="fill:none;fill-rule:evenodd;stroke:#333333;stroke-width:0.40000001;stroke-linecap:round;stroke-linejoin:round;stroke-miterlimit:4;stroke-dasharray:none;stroke-opacity:1"
           d="m 38.589351,203.61023 v -3.31054 h 29.51162 v 3.80774"
           id="path887"
           inkscape:connector-curvature="0"
           sodipodi:nodetypes="cccc" />
      </g>
    </g>
  </g>
</svg>
