<?xml version="1.0" encoding="UTF-8" standalone="no"?>
<!-- Created with Inkscape (http://www.inkscape.org/) -->

<svg
   xmlns:dc="http://purl.org/dc/elements/1.1/"
   xmlns:cc="http://creativecommons.org/ns#"
   xmlns:rdf="http://www.w3.org/1999/02/22-rdf-syntax-ns#"
   xmlns:svg="http://www.w3.org/2000/svg"
   xmlns="http://www.w3.org/2000/svg"
   xmlns:sodipodi="http://sodipodi.sourceforge.net/DTD/sodipodi-0.dtd"
   xmlns:inkscape="http://www.inkscape.org/namespaces/inkscape"
   width="435.45496"
   height="229.77643"
   id="svg2"
   version="1.1"
   inkscape:version="0.92.4 5da689c313, 2019-01-14"
   sodipodi:docname="ring_road2.svg">
  <defs
     id="defs4" />
  <sodipodi:namedview
     id="base"
     pagecolor="#ffffff"
     bordercolor="#666666"
     borderopacity="1.0"
     inkscape:pageopacity="0.0"
     inkscape:pageshadow="2"
     inkscape:zoom="2.45"
     inkscape:cx="237.90757"
     inkscape:cy="129.76249"
     inkscape:document-units="px"
     inkscape:current-layer="layer1"
     showgrid="false"
     inkscape:object-nodes="true"
     inkscape:snap-object-midpoints="false"
     inkscape:snap-center="true"
     fit-margin-top="0"
     fit-margin-left="0"
     fit-margin-right="0"
     fit-margin-bottom="0"
     inkscape:window-width="1920"
     inkscape:window-height="1058"
     inkscape:window-x="-8"
     inkscape:window-y="-8"
     inkscape:window-maximized="1"
     showguides="false" />
  <metadata
     id="metadata7">
    <rdf:RDF>
      <cc:Work
         rdf:about="">
        <dc:format>image/svg+xml</dc:format>
        <dc:type
           rdf:resource="http://purl.org/dc/dcmitype/StillImage" />
        <dc:title />
      </cc:Work>
    </rdf:RDF>
  </metadata>
  <g
     inkscape:label="Layer 1"
     inkscape:groupmode="layer"
     id="layer1"
     transform="translate(-67.141514,-66.190056)">
    <path
       sodipodi:nodetypes="cc"
       inkscape:connector-curvature="0"
       id="path3783"
       d="M 87.278445,117.70835 H 502.59647"
       style="fill:#00ccff;stroke:#649861;stroke-width:2;stroke-linecap:round;stroke-linejoin:miter;stroke-miterlimit:4;stroke-dasharray:4,4;stroke-dashoffset:0;stroke-opacity:1" />
    <path
       sodipodi:nodetypes="cc"
       inkscape:connector-curvature="0"
       id="path3783-1"
       d="M 87.278442,211.32098 H 502.59647"
       style="fill:none;stroke:#333333;stroke-width:2;stroke-linecap:butt;stroke-linejoin:miter;stroke-miterlimit:4;stroke-dasharray:none;stroke-opacity:1" />
    <path
       style="fill:#ffd42a;stroke:#e4494b;stroke-width:6;stroke-linecap:round;stroke-linejoin:miter;stroke-miterlimit:4;stroke-dasharray:none;stroke-opacity:1"
       d="M 154.97997,137.19485 V 207.3713"
       id="path3803"
       inkscape:connector-curvature="0" />
    <path
       style="fill:#ffd42a;stroke:#e4494b;stroke-width:6;stroke-linecap:round;stroke-linejoin:miter;stroke-miterlimit:4;stroke-dasharray:none;stroke-opacity:1"
       d="M 221.77881,93.600172 V 185.33603"
       id="path3805"
       inkscape:connector-curvature="0" />
    <path
       style="fill:#ffd42a;stroke:#e4494b;stroke-width:6;stroke-linecap:round;stroke-linejoin:miter;stroke-miterlimit:4;stroke-dasharray:none;stroke-opacity:1"
       d="M 364.70426,276.83755 V 221.47518"
       id="path3809"
       inkscape:connector-curvature="0" />
    <path
       style="fill:#ffd42a;stroke:#e4494b;stroke-width:6;stroke-linecap:round;stroke-linejoin:miter;stroke-miterlimit:4;stroke-dasharray:none;stroke-opacity:1"
       d="M 410.44042,158.59076 V 260.89078"
       id="path3811"
       inkscape:connector-curvature="0" />
    <path
       style="fill:#ffd42a;stroke:#e4494b;stroke-width:6;stroke-linecap:round;stroke-linejoin:miter;stroke-miterlimit:4;stroke-dasharray:none;stroke-opacity:1"
       d="M 441.92969,86.940142 V 196.46132"
       id="path3813"
       inkscape:connector-curvature="0" />
    <path
       style="fill:none;stroke:#333333;stroke-width:2;stroke-linecap:butt;stroke-linejoin:miter;stroke-miterlimit:4;stroke-dasharray:none;stroke-opacity:1"
       d="M 87.278445,66.190056 V 295.96649"
       id="path2985"
       inkscape:connector-curvature="0"
       sodipodi:nodetypes="cc" />
    <text
       transform="scale(1.0000221,0.99997791)"
       xml:space="preserve"
       style="font-style:normal;font-variant:normal;font-weight:normal;font-stretch:normal;line-height:0%;font-family:Montserrat;-inkscape-font-specification:Montserrat;letter-spacing:0px;word-spacing:0px;fill:#333333;fill-opacity:1;stroke:none"
       x="189.00098"
       y="235.44154"
       id="text4488"><tspan
         sodipodi:role="line"
         id="tspan4490"
         x="189.00098"
         y="235.44154"
         style="font-style:normal;font-variant:normal;font-weight:normal;font-stretch:normal;font-size:15.16480732px;line-height:1.25;font-family:Montserrat;-inkscape-font-specification:Montserrat;fill:#333333;fill-opacity:1">Distance</tspan></text>
    <text
       transform="matrix(0,-1.0000221,0.99997791,0,0,0)"
       xml:space="preserve"
       style="font-style:normal;font-variant:normal;font-weight:normal;font-stretch:normal;line-height:0%;font-family:Montserrat;-inkscape-font-specification:Montserrat;letter-spacing:0px;word-spacing:0px;fill:#333333;fill-opacity:1;stroke:none"
       x="-197.57355"
       y="77.667374"
       id="text4492"><tspan
         sodipodi:role="line"
         id="tspan4494"
         x="-197.57355"
         y="77.667374"
         style="font-style:normal;font-variant:normal;font-weight:normal;font-stretch:normal;font-size:15.16480732px;line-height:1.25;font-family:Montserrat;-inkscape-font-specification:Montserrat;fill:#333333;fill-opacity:1">Fuel</tspan></text>
    <text
       id="text3817"
       y="112.02254"
       x="284.7226"
       style="font-style:normal;font-variant:normal;font-weight:normal;font-stretch:normal;line-height:0%;font-family:Montserrat;-inkscape-font-specification:Montserrat;letter-spacing:0px;word-spacing:0px;fill:#649861;fill-opacity:1;stroke:none;"
       xml:space="preserve"
       transform="scale(1.0000221,0.99997791)"><tspan
         style="font-style:normal;font-variant:normal;font-weight:normal;font-stretch:normal;font-size:15.16480732px;line-height:1.25;font-family:Montserrat;-inkscape-font-specification:Montserrat;fill:#649861;fill-opacity:1;"
         y="112.02254"
         x="284.7226"
         id="tspan3819"
         sodipodi:role="line">Initial Fuel Level</tspan></text>
    <text
       xml:space="preserve"
       style="font-style:normal;font-variant:normal;font-weight:normal;font-stretch:normal;line-height:0%;font-family:Montserrat;-inkscape-font-specification:Montserrat;letter-spacing:0px;word-spacing:0px;fill:#d27b50;fill-opacity:1;stroke:none"
       x="274.35526"
       y="281.72192"
       id="text3757"
       transform="scale(1.0000221,0.99997791)"><tspan
         sodipodi:role="line"
         id="tspan3759"
         x="274.35526"
         y="281.72192"
         style="font-style:normal;font-variant:normal;font-weight:normal;font-stretch:normal;font-size:15.16480732px;line-height:1.25;font-family:Montserrat;-inkscape-font-specification:Montserrat;fill:#d27b50;fill-opacity:1">Minimum</tspan></text>
    <path
       style="fill:none;stroke:#333333;stroke-width:6;stroke-linecap:round;stroke-linejoin:miter;stroke-miterlimit:4;stroke-dasharray:none;stroke-opacity:1"
       d="m 87.278445,117.70835 c 9.627016,8.34312 10.34613,21.98747 17.151055,32.19441 2.60691,3.91021 9.23338,6.17698 12.93851,11.73441 3.46575,5.19841 -0.21018,12.49695 5.41612,16.24765 4.75512,3.16994 11.0311,5.21443 16.24837,7.82294 5.46965,2.73471 12.17433,16.00409 15.94747,21.66354"
       id="path3769"
       inkscape:connector-curvature="0" />
    <path
       style="fill:none;stroke:#333333;stroke-width:6;stroke-linecap:round;stroke-linejoin:miter;stroke-miterlimit:4;stroke-dasharray:none;stroke-opacity:1"
       d="m 154.97997,137.19485 c 2.44906,0.99603 5.51377,2.20382 7.22149,3.91146 4.05023,4.05004 7.91841,9.45935 13.8412,11.43354 6.77163,2.25711 18.28291,0.80701 22.86808,6.92029 1.24437,1.65909 3.45762,3.60523 4.51343,5.71676 1.70102,3.40191 2.12598,7.64863 4.51344,10.83178 3.54201,4.72249 9.70276,6.5685 13.8412,9.32735"
       id="path3771"
       inkscape:connector-curvature="0" />
    <path
       style="fill:none;stroke:#333333;stroke-width:6;stroke-linecap:round;stroke-linejoin:miter;stroke-miterlimit:4;stroke-dasharray:none;stroke-opacity:1"
       d="m 221.77881,93.600172 c 3.36748,0.145696 4.74716,3.287326 7.52239,4.212359 9.26752,3.089049 9.34849,10.873209 13.23941,18.654699 1.61898,3.23781 5.7989,6.86507 7.2215,11.13266 3.14583,9.43707 6.71158,25.36599 13.8412,32.49529 4.37894,4.37875 12.47065,11.80137 18.35463,14.74323 3.03076,1.51532 7.10352,2.49852 9.92957,3.91148 3.61415,1.807 7.69931,0.84067 11.43403,2.70795 4.12178,2.06079 4.14898,7.68027 7.5224,9.92911 4.25383,2.83577 8.87666,5.26569 12.63761,9.02648 1.13499,1.13493 2.7208,10.09546 5.71702,13.84059 6.26207,7.82723 24.53905,30.75421 26.77972,39.71647 1.55014,6.20026 6.0718,18.88597 8.72597,22.86706"
       id="path3773"
       inkscape:connector-curvature="0" />
    <path
       style="fill:none;stroke:#333333;stroke-width:6;stroke-linecap:round;stroke-linejoin:miter;stroke-miterlimit:4;stroke-dasharray:none;stroke-opacity:1"
       d="m 364.70426,221.47518 c 1.42479,1.04616 2.53236,1.9744 3.91166,3.00883 3.14719,2.36029 5.0256,5.60281 8.72597,7.82293 6.58614,3.95152 15.19232,5.56343 20.46091,10.83177 3.6794,3.67925 4.85315,11.47235 6.31881,12.93795 1.77449,1.77441 4.54813,3.04352 6.31881,4.81412"
       id="path3775"
       inkscape:connector-curvature="0" />
    <path
       style="fill:none;stroke:#333333;stroke-width:6;stroke-linecap:round;stroke-linejoin:miter;stroke-miterlimit:4;stroke-dasharray:none;stroke-opacity:1"
       d="m 410.44042,158.59076 c 2.25507,2.30767 3.53981,5.24172 5.95743,7.65921 3.87529,3.87511 8.18931,4.78486 11.91485,8.51025 6.54102,6.54071 7.85283,15.93719 13.61699,21.7011"
       id="path3777"
       inkscape:connector-curvature="0" />
    <path
       style="fill:none;stroke:#333333;stroke-width:6;stroke-linecap:round;stroke-linejoin:miter;stroke-miterlimit:4;stroke-dasharray:none;stroke-opacity:1"
       d="m 441.92969,86.940142 c 2.6054,1.703414 4.10128,2.476069 6.80849,3.829606 3.55346,1.776652 8.91626,1.479348 12.76592,3.404099 5.52744,2.763588 6.20898,11.614593 12.76594,14.892913 3.84225,1.92105 9.67807,1.64749 13.19144,3.4041 2.67653,1.3382 2.6778,4.15481 5.5319,5.10615"
       id="path3781"
       inkscape:connector-curvature="0" />
    <circle
       style="fill:#d27b50;fill-opacity:1;stroke:none"
       id="path3815"
       transform="matrix(0.84250791,0,0,0.84247066,44.279582,-73.601662)"
       cx="380.32245"
       cy="415.96606"
       r="5.5558391" />
  </g>
</svg>
